<svg width="23" height="22" viewBox="0 0 23 22" fill="none" xmlns="http://www.w3.org/2000/svg">
<path d="M17.9793 0.696249C18.7706 0.463407 20.4895 -0.278776 21.5373 0.111328C22.585 0.501432 22.5115 2.62147 22.5115 2.62147C22.438 4.74153 22.2145 5.9678 21.8244 7.01557C21.4343 8.06334 20.1464 9.61478 19.5112 9.99266C18.3429 10.6135 16.6902 10.8725 16.564 10.9056L15.6781 11.1511C15.555 11.1844 15.47 11.2909 15.4656 11.4189C15.4601 11.5782 15.5837 11.7107 15.743 11.7162L16.7486 11.7511C17.9014 11.842 18.1294 11.6996 17.3655 12.4123C17.3655 12.4123 16.9369 12.8747 16.3481 13.2913C15.7593 13.7078 14.0593 13.9776 13.9803 13.9999L13.5785 14.0801C13.4554 14.1134 13.3704 14.2199 13.3659 14.3479C13.3604 14.5072 14.7371 14.3984 14.8963 14.4039C15.3086 14.4182 13.3192 15.8875 12.9647 16.1003C11.6523 16.8865 11.0286 16.5557 9.47645 16.5019L7.0833 16.1357L1.96496 20.9109C1.16065 21.6613 0.122224 21.8675 0.0202112 21.7582C-0.0818014 21.6488 0.19591 20.6272 1.00022 19.8768L11.3415 10.2257C11.6259 9.96041 11.8235 9.70581 11.5582 9.42144C11.2929 9.13708 10.9845 9.27291 10.7001 9.53822L5.93784 13.9813C5.75365 14.1531 5.22145 13.5844 5.23022 13.3314C5.30376 11.2108 6.4238 9.428 7.97488 7.98089L11.3292 4.84838C13.6657 2.66848 16.9993 0.984643 17.9793 0.696249Z" fill="#614C40"/>
</svg>
